<?xml version="1.0" encoding="UTF-8"?>
<svg width="73px" height="70px" viewBox="0 0 73 70" version="1.1" xmlns="http://www.w3.org/2000/svg" xmlns:xlink="http://www.w3.org/1999/xlink">
    <!-- Generator: Sketch 47 (45396) - http://www.bohemiancoding.com/sketch -->
    <title>icon-2</title>
    <desc>Created with Sketch.</desc>
    <defs></defs>
    <g id="Page-1" stroke="none" stroke-width="1" fill="none" fill-rule="evenodd" stroke-linecap="round" stroke-linejoin="round">
        <g id="DataVisualization_Light-Copy" transform="translate(-537.000000, -2643.000000)" stroke="#323232" stroke-width="2">
            <g id="icon-2" transform="translate(538.000000, 2644.000000)">
                <path d="M18,33.4992767 C18,42.6125016 25.3874984,50 34.5007233,50 C43.6139482,50 51,42.6125016 51,33.4992767 C51,24.3860518 43.6139482,17 34.5007233,17 C25.3874984,17 18,24.3860518 18,33.4992767 Z" id="Stroke-1"></path>
                <path d="M26,33.4992767 C26,42.6125016 30.0294615,50 35.0007245,50 C39.9719874,50 44,42.6125016 44,33.4992767 C44,24.3860518 39.9719874,17 35.0007245,17 C30.0294615,17 26,24.3860518 26,33.4992767 Z" id="Stroke-3"></path>
                <path d="M50,28 L20,28" id="Stroke-5"></path>
                <path d="M50,39 L20,39" id="Stroke-7"></path>
                <path d="M34,17 L34,50" id="Stroke-9"></path>
                <path d="M71,23.0007174 C71,26.864815 67.864815,30 64.0007174,30 C60.135185,30 57,26.864815 57,23.0007174 C57,19.135185 60.135185,16 64.0007174,16 C67.864815,16 71,19.135185 71,23.0007174 Z" id="Stroke-11"></path>
                <path d="M69,53.0007049 C69,55.761173 66.761173,58 64.0007049,58 C61.238827,58 59,55.761173 59,53.0007049 C59,50.238827 61.238827,48 64.0007049,48 C66.761173,48 69,50.238827 69,53.0007049 Z" id="Stroke-13"></path>
                <path d="M43,4.99929508 C43,7.76117299 40.761173,10 37.9992951,10 C35.238827,10 33,7.76117299 33,4.99929508 C33,2.23882701 35.238827,0 37.9992951,0 C40.761173,0 43,2.23882701 43,4.99929508 Z" id="Stroke-15"></path>
                <path d="M24,58.9992682 C24,62.312843 21.313979,65 18,65 C14.686021,65 12,62.312843 12,58.9992682 C12,55.6856934 14.686021,53 18,53 C21.313979,53 24,55.6856934 24,58.9992682 Z" id="Stroke-17"></path>
                <path d="M57,26 L50,29" id="Stroke-19"></path>
                <path d="M47,44 L59,51" id="Stroke-21"></path>
                <path d="M10.0712633,8.90778006 C8.36240769,11.0775476 8.7388635,14.2215253 10.9087717,15.9288603 C13.0786799,17.6361952 16.2214515,17.2625835 17.9288971,15.092816 C19.6363427,12.9230484 19.2627068,9.77907073 17.0913887,8.07173577 C14.9214805,6.36299095 11.7787089,6.7380125 10.0712633,8.90778006 Z" id="Stroke-23"></path>
                <path d="M36.0712633,59.9081034 C34.3624077,62.0779296 34.7388635,65.2219923 36.9087717,66.9293734 C39.0786799,68.6367545 42.2214515,68.2617228 43.9288971,66.0918966 C45.6363427,63.9220704 45.2627068,60.7780077 43.0913887,59.0706266 C40.9214805,57.3632455 37.7787089,57.7382772 36.0712633,59.9081034 Z" id="Stroke-25"></path>
                <path d="M1.07073093,35.9077801 C-0.636816511,38.0775476 -0.261748287,41.2229352 1.9082893,42.9288603 C4.07832688,44.6361952 7.22128579,44.2625835 8.92883323,42.092816 C10.6363807,39.9230484 10.2627225,36.7790707 8.09127487,35.0717358 C5.92123729,33.3629909 2.77827837,33.7380125 1.07073093,35.9077801 Z" id="Stroke-27"></path>
                <path d="M20,54 L25,47" id="Stroke-29"></path>
                <path d="M10,37 L18,35" id="Stroke-31"></path>
                <path d="M18,17 L22,22" id="Stroke-33"></path>
                <path d="M37.395,10 L37,16" id="Stroke-35"></path>
                <path d="M38,49 L39,58" id="Stroke-37"></path>
            </g>
        </g>
    </g>
</svg>